<svg width="20" height="16" viewBox="0 0 20 16" fill="none" xmlns="http://www.w3.org/2000/svg">
<path d="M6.02634 3.36646C5.72654 2.35079 4.91275 2.46211 4.35634 2.93516C2.98572 4.20124 1.20105 6.85866 2.34325 10.6852C3.29983 13.9269 7.28015 16 7.28015 16H2.64015C2.64015 16 0.244322 13.3147 0.0301504 10.1565C-0.24111 6.16348 1.35808 3.64517 3.21414 2.00348C4.95596 0.459115 6.61214 0 6.61214 0L9.99997 11.1L13.3878 0C13.3878 0 15.044 0.459116 16.7858 2.00348C18.6419 3.64517 20.2411 6.16348 19.9698 10.1565C19.7556 13.3147 17.3598 16 17.3598 16H12.7198C12.7198 16 16.6998 13.9269 17.6567 10.6852C18.7989 6.8591 17.0142 4.20167 15.6436 2.93516C15.0868 2.46211 14.273 2.35079 13.9736 3.36646C12.9456 6.6082 10.0004 15.8965 10.0004 15.8965C10.0004 15.8965 7.05516 6.6051 6.02718 3.36646H6.02634Z" fill="white"/>
</svg>
